<?xml version="1.0" standalone="no"?>
<!DOCTYPE svg PUBLIC "-//W3C//DTD SVG 20010904//EN"
 "http://www.w3.org/TR/2001/REC-SVG-20010904/DTD/svg10.dtd">
<svg version="1.0" xmlns="http://www.w3.org/2000/svg"
 width="512.000000pt" height="512.000000pt" viewBox="0 0 512.000000 512.000000"
 preserveAspectRatio="xMidYMid meet">
<metadata>
Created by potrace 1.11, written by Peter Selinger 2001-2013
</metadata>
<g transform="translate(0.000000,512.000000) scale(0.100000,-0.100000)"
fill="#000000" stroke="none">
<path d="M86 4915 c1 -5 5 -41 9 -79 6 -79 10 -99 35 -176 53 -165 166 -331
293 -427 32 -25 34 -18 -42 -132 -34 -53 -144 -267 -192 -376 -25 -56 -86
-234 -94 -274 -2 -9 -10 -43 -19 -76 -8 -33 -18 -73 -21 -90 -2 -16 -7 -40 -9
-52 -3 -11 -8 -43 -12 -70 -3 -26 -8 -57 -10 -68 -19 -98 -25 -446 -11 -585
35 -361 160 -751 328 -1029 22 -34 39 -65 39 -67 0 -2 11 -20 25 -41 14 -21
31 -46 38 -57 123 -186 369 -446 555 -586 37 -29 74 -57 82 -63 34 -27 180
-117 189 -117 6 0 11 -4 11 -8 0 -4 12 -13 28 -19 15 -6 59 -29 97 -50 39 -21
102 -51 140 -67 39 -16 84 -35 100 -42 73 -31 272 -87 405 -114 128 -25 179
-33 320 -46 50 -5 337 -4 390 1 122 11 153 16 310 45 385 72 795 265 1104 520
124 102 309 290 397 405 13 17 28 35 34 41 6 6 28 37 50 70 22 32 42 61 46 64
14 13 132 226 174 315 52 109 125 299 140 365 1 8 10 40 18 70 13 46 35 144
53 235 5 30 13 92 21 170 10 90 10 410 0 495 -4 36 -9 85 -12 110 -3 25 -7 54
-10 66 -3 12 -7 39 -10 60 -4 21 -19 91 -35 154 -63 250 -175 512 -313 728
l-59 92 28 23 c154 119 278 319 320 518 2 13 7 58 10 99 l6 75 -298 -2 c-165
-1 -303 -2 -309 -2 -5 -1 -11 -16 -12 -35 -1 -19 -14 -57 -28 -85 -48 -90
-121 -135 -238 -144 -174 -15 -296 -140 -298 -306 -1 -89 31 -159 114 -249
105 -112 247 -296 247 -318 0 -3 13 -25 30 -49 16 -24 30 -50 30 -57 0 -7 -24
-22 -52 -32 -46 -16 -77 -29 -183 -77 -60 -27 -229 -32 -315 -9 -24 6 -87 31
-141 55 -144 65 -202 78 -359 78 -177 1 -241 -14 -442 -107 -72 -33 -112 -40
-223 -39 -107 1 -146 10 -258 63 -46 22 -91 40 -100 40 -9 0 -18 4 -21 8 -11
18 -156 37 -276 36 -122 -1 -237 -21 -267 -46 -7 -6 -13 -8 -13 -5 0 3 -39
-12 -87 -35 -107 -50 -187 -67 -295 -62 -87 3 -131 16 -278 79 -47 20 -93 39
-102 43 -16 6 -9 20 45 107 71 113 147 214 223 295 116 124 144 178 144 285 0
162 -124 288 -297 302 -38 3 -87 13 -111 24 -74 32 -152 130 -152 192 -1 50 3
50 -323 51 -199 1 -303 -2 -301 -9z m822 -1599 c238 -107 484 -107 721 1 115
52 196 73 281 73 102 0 147 -11 287 -71 211 -90 369 -105 590 -55 12 2 50 16
85 31 209 87 212 88 300 93 109 6 187 -9 286 -54 92 -42 208 -80 277 -90 94
-13 274 -5 327 15 12 5 28 10 33 11 39 10 145 51 170 66 35 21 127 47 135 38
8 -10 38 -97 45 -135 3 -13 12 -55 20 -94 27 -129 36 -210 39 -369 6 -360 -99
-737 -290 -1042 -93 -149 -155 -226 -284 -354 -99 -98 -123 -119 -205 -180
-33 -25 -64 -49 -70 -53 -116 -92 -409 -222 -622 -277 -193 -49 -510 -73 -659
-50 -28 5 -73 11 -100 14 -27 3 -71 10 -99 16 -27 6 -63 13 -80 16 -16 3 -84
24 -150 46 -644 213 -1148 774 -1285 1429 -51 244 -56 410 -24 709 4 43 44
210 65 276 l20 62 55 -18 c30 -11 90 -35 132 -54z"/>
<path d="M2295 2679 c-264 -45 -546 -216 -652 -396 -49 -84 -25 -164 81 -268
62 -62 146 -125 165 -125 6 0 11 -4 11 -8 0 -6 81 -47 165 -82 64 -27 242 -70
290 -70 50 0 149 163 185 306 56 217 -1 465 -144 632 -21 24 -25 24 -101 11z
m-112 -299 c41 -45 38 -101 -7 -146 -38 -38 -85 -45 -134 -20 -63 32 -74 127
-22 176 51 48 114 44 163 -10z"/>
<path d="M2615 2626 c139 -254 145 -543 16 -801 l-47 -92 28 3 c218 26 472
149 594 287 55 64 63 64 113 -11 64 -96 156 -185 218 -210 54 -23 145 -31 201
-18 45 11 54 53 38 176 -12 93 -80 182 -160 211 -20 7 -36 18 -36 24 0 6 22
22 50 34 47 21 94 69 128 129 24 42 33 200 13 231 -22 34 -171 29 -255 -8 -55
-26 -138 -108 -193 -193 -24 -38 -50 -68 -56 -68 -7 0 -42 30 -77 66 -36 36
-92 85 -125 109 -110 79 -295 157 -436 183 l-47 9 33 -61z"/>
</g>
</svg>
